<svg width="499" height="80" viewBox="0 0 499 80" fill="none" xmlns="http://www.w3.org/2000/svg">
<g clip-path="url(#clip0_1_2)">
<mask id="mask0_1_2" style="mask-type:luminance" maskUnits="userSpaceOnUse" x="0" y="0" width="499" height="80">
<path d="M499 0H0V80H499V0Z" fill="white"/>
</mask>
<g mask="url(#mask0_1_2)">
<path fill-rule="evenodd" clip-rule="evenodd" d="M14.766 53.642H42.452L28.235 78.074H0.997986L14.766 53.642Z" fill="#50B0A0" fill-opacity="0.9"/>
<path fill-rule="evenodd" clip-rule="evenodd" d="M43.5 0.974976L88.098 77.928H56.969L27.936 28.187L43.5 0.974976Z" fill="black"/>
<path d="M98.966 79.561V33.016H111.603V51.834H112.239L126.239 33.016H140.966L125.239 53.743L141.33 79.561H126.239L115.785 62.106L111.603 67.561V79.561H98.966ZM144.716 79.561V33.016H164.807C168.262 33.016 171.285 33.644 173.876 34.902C176.467 36.159 178.482 37.97 179.921 40.334C181.36 42.697 182.08 45.531 182.08 48.834C182.08 52.167 181.338 54.978 179.853 57.266C178.383 59.553 176.315 61.281 173.648 62.447C170.997 63.614 167.898 64.197 164.353 64.197H152.353V54.379H161.807C163.292 54.379 164.557 54.197 165.603 53.834C166.663 53.455 167.474 52.856 168.035 52.038C168.61 51.22 168.898 50.152 168.898 48.834C168.898 47.5 168.61 46.417 168.035 45.584C167.474 44.735 166.663 44.114 165.603 43.72C164.557 43.311 163.292 43.106 161.807 43.106H157.353V79.561H144.716ZM171.989 58.197L183.626 79.561H169.898L158.535 58.197H171.989ZM200.103 33.016V79.561H187.466V33.016H200.103ZM246.364 33.016V79.561H235.819L219.001 55.106H218.728V79.561H206.091V33.016H216.819L233.364 57.379H233.728V33.016H246.364Z" fill="black"/>
</g>
</g>
<defs>
<clipPath id="clip0_1_2">
<rect width="499" height="80" fill="white"/>
</clipPath>
</defs>
</svg>
